<?xml version="1.0" encoding="UTF-8"?>
<svg id="Layer_2" data-name="Layer 2" xmlns="http://www.w3.org/2000/svg" viewBox="0 0 277 75.71">
  <defs>
    <style>
      .cls-1 {
        fill: #121138;
        font-family: Corbel-Bold, Corbel;
        font-size: 59.06px;
        font-weight: 700;
        stroke: #121138;
        stroke-miterlimit: 10;
        stroke-width: 2px;
      }

      .cls-2 {
        fill: #3b5aec;
      }
    </style>
  </defs>
  <g id="Background_Design_Image" data-name="Background + Design Image">
    <g id="Kansalt_full_logo" data-name="Kansalt full logo">
      <text id="Kansalt_text" data-name="Kansalt text" class="cls-1" transform="translate(82.8 56.91)"><tspan x="0" y="0">Kansalt</tspan></text>
      <path id="Kansalt_logo" data-name="Kansalt logo" class="cls-2" d="m75.63,46.06c-.02-.38.07-.76.07-1.15-.01-3.36,0-6.72-.03-10.07-.02-1.54.03-3.08.03-4.62,0-5.86,0-11.73.03-17.59,0-.74-.05-1.47-.2-2.18-.26-1.18-.64-2.32-1.17-3.42-.73-1.49-1.72-2.79-2.98-3.87-2.31-1.98-5-3.05-8.06-3.09-3.89-.05-7.79-.06-11.68-.03-2.1.02-4.21-.01-6.31.01-4.62.06-9.23.01-13.85,0-3.01,0-6.01-.03-9.02-.03-2.11,0-4.23.04-6.34.01-1.61-.02-3.23-.14-4.85.1-1.32.19-2.58.55-3.79,1.11-1.76.81-3.25,1.96-4.5,3.42-.58.68-1.06,1.44-1.47,2.22-.45.85-.84,1.75-1.08,2.69-.17.67-.38,1.35-.38,2.04C0,16.64,0,21.65,0,26.66c0,10.08,0,20.17.01,30.25,0,2.42-.01,4.83.03,7.25.01.73.2,1.45.42,2.14.4,1.2.93,2.34,1.63,3.41.87,1.34,2.02,2.4,3.25,3.41.7.57,1.51.94,2.3,1.35.57.29,1.18.54,1.82.72.92.26,1.83.5,2.79.5,2-.01,4.01,0,6.01,0,7.29,0,14.59,0,21.88,0v.02c1.34,0,2.69,0,4.03,0,6.17,0,12.33,0,18.5,0,.67,0,1.34-.02,1.99-.1.61-.07,1.19-.31,1.8-.42.61-.1,1.11-.44,1.66-.66,1.96-.8,3.52-2.13,4.85-3.75,1.75-2.13,2.61-4.57,2.68-7.26.08-3.05.04-6.11.01-9.17-.02-2.76.08-5.53-.05-8.29Zm-42.86,11.84c-2.27,0-4.55.08-6.82-.04-3.12-.17-5.48-1.87-7.2-4.65-1.24-2-1.77-4.2-1.74-6.63.06-6.67.03-13.35.05-20.02,0-2.29.77-4.28,2.11-6.02,1.13-1.46,2.56-2.46,4.24-2.98.76-.24,1.59-.31,2.39-.32,2.39-.04,4.79-.03,7.18-.03.05,0,.1.02.21.03-.03.45-.05.9-.11,1.34-.24,1.85-1.02,3.41-2.21,4.73-1.53,1.69-3.07,3.36-4.6,5.05-.75.82-1.48,1.66-2.23,2.48-.43.47-.61,1.03-.6,1.7.02,2.91,0,5.83,0,8.74,0,.59-.04,1.17,0,1.75.03.31.13.67.32.91.61.79,1.26,1.56,1.92,2.31,1.47,1.64,2.98,3.25,4.45,4.91.66.75,1.28,1.55,1.84,2.38.6.89.78,1.98.99,3.03.08.42.13.85.19,1.31-.17.02-.27.04-.37.04Zm21.11-.3c-.7.28-1.5.32-2.26.33-2.41.02-4.82-.02-7.22-.08-.28,0-.61-.18-.81-.39-1.6-1.65-3.19-3.32-4.76-4.99-1.59-1.7-3.18-3.41-4.75-5.13-2.67-2.93-5.34-5.87-8-8.81-.72-.8-.69-.79.04-1.58,3.1-3.33,6.19-6.67,9.29-10,1.08-1.16,2.2-2.29,3.28-3.44,1.83-1.94,3.65-3.89,5.46-5.85.26-.28.53-.39.9-.39,2.02.02,4.03,0,6.05,0h0c2.07,0,4.14,0,6.21-.01.28,0,.35.08.36.4.02,2.72-1.18,4.79-2.96,6.51-1.64,1.58-3.36,3.05-5.03,4.61-.97.91-1.95,1.84-2.42,3.18-.65,1.89-.7,3.73.71,5.31.63.7,1.27,1.39,1.94,2.04,1.87,1.83,3.79,3.6,5.61,5.49.76.79,1.41,1.75,1.92,2.74,1.9,3.68.29,8.48-3.57,10.05Zm-2.41-8.12c-.45-.53-.92-1.05-1.42-1.53-.45-.43-.99-.77-1.42-1.22-2.11-2.19-4.32-4.26-6.24-6.67-.97-1.22-1.71-2.51-1.71-4.18,0-.64,0-1.29,0-1.93,0,0,0,0,0,0,0-.47-.02-.94,0-1.4.03-.61-.04-.68-.58-.51-1.31.42-2.25,1.35-3.1,2.47-1.33,1.77-.93,3.86-.04,5.58.61,1.19,1.49,2.16,2.39,3.12,2,2.12,3.96,4.29,5.92,6.46.68.75,1.48,1.19,2.4,1.42,1.13.29,2.26.25,3.41.19.74-.04.92-.28.71-1.07-.07-.26-.17-.55-.33-.74Z"/>
    </g>
  </g>
</svg>