<svg width="980" height="260" viewBox="0 0 980 260" fill="none" xmlns="http://www.w3.org/2000/svg">
  <defs>
    <linearGradient id="qodeMarkBlue" x1="68" y1="66" x2="232" y2="208" gradientUnits="userSpaceOnUse">
      <stop stop-color="#27D6FF"/>
      <stop offset="1" stop-color="#2751FF"/>
    </linearGradient>
    <linearGradient id="qodeMarkGold" x1="198" y1="98" x2="282" y2="214" gradientUnits="userSpaceOnUse">
      <stop stop-color="#F6D67B"/>
      <stop offset="1" stop-color="#C88F17"/>
    </linearGradient>
    <linearGradient id="qodeTextGold" x1="553" y1="74" x2="873" y2="178" gradientUnits="userSpaceOnUse">
      <stop stop-color="#E3B43D"/>
      <stop offset="1" stop-color="#C88F17"/>
    </linearGradient>
  </defs>
  <g>
    <path d="M154 52C99.88 52 56 95.88 56 150C56 204.12 99.88 248 154 248C172.24 248 189.29 243 203.87 234.33L225.26 255.73L245.99 235L224.73 213.74C233.35 199.19 238 182.24 238 164V150H177V174H209.78C201.55 199.32 179.41 217.69 153 217.69C116.17 217.69 86.31 187.83 86.31 151C86.31 114.17 116.17 84.31 153 84.31C171.09 84.31 187.49 91.38 199.64 102.92L221.12 81.44C203.44 64.18 179.28 53.38 153 53.38V52H154Z" fill="url(#qodeMarkBlue)"/>
    <path d="M191 90H229.54L211.84 128.74H247.38L205.13 182.56H230.66L165.81 240V189.96H134.8L175.13 136.43H143.76L191 90Z" fill="url(#qodeMarkGold)"/>
    <text x="280" y="162" fill="#111318" font-family="Arial, Helvetica, sans-serif" font-size="118" font-weight="700">Qode</text>
    <text x="574" y="162" fill="url(#qodeTextGold)" font-family="Arial, Helvetica, sans-serif" font-size="118" font-weight="700">27</text>
    <text x="742" y="162" fill="url(#qodeTextGold)" font-family="Arial, Helvetica, sans-serif" font-size="82" font-weight="700">.com</text>
    <text x="576" y="222" fill="#7D8088" font-family="Arial, Helvetica, sans-serif" font-size="62" font-weight="400">Just code IT !</text>
  </g>
</svg>
